Coordinates
version=1
nRows=4
nColumns=107
inDegrees=yes

Units are S.I. units (second, meters, Newtons, ...)
If the header above contains a line with 'inDegrees', this indicates whether rotational values are in degrees (yes) or radians (no).

endheader
time	sternoclavicular_r2	sternoclavicular_r3	unrotscap_r3	unrotscap_r2	acromioclavicular_r2	acromioclavicular_r3	acromioclavicular_r1	unrothum_r1	unrothum_r3	unrothum_r2	elv_angle	shoulder_elv	shoulder1_r2	shoulder_rot	elbow_flexion	pro_sup	deviation	flexion	proximal_distal_r1	proximal_distal_r3	cmc_flexion	cmc_abduction	mp_flexion	ip_flexion	mcp2_flexion	mcp2_abduction	pm2_flexion	md2_flexion	mcp3_flexion	mcp3_abduction	pm3_flexion	md3_flexion	mcp4_flexion	mcp4_abduction	pm4_flexion	md4_flexion	mcp5_flexion	mcp5_abduction	pm5_flexion	md5_flexion	bicpt_tx	bicpt_ty	bicpt_tz	bicpt2_tx	bicpt2_ty	bicpt2_tz	ptpt_tx	ptpt_ty	ptpt_tz	FCUpt_tx	FCUpt_ty	FCUpt_tz	EDCpt_tx	EDCpt_ty	EDCpt_tz	APLpt_tx	APLpt_ty	APLpt_tz	FPLpt_tx	FPLpt_ty	FPLpt_tz	FPLpt2_tx	FPLpt2_ty	FPLpt2_tz	PEC1pt2_tx	PEC1pt2_ty	PEC1pt2_tz	PEC1pt3_tx	PEC1pt3_ty	PEC1pt3_tz	PEC2pt2_tx	PEC2pt2_ty	PEC2pt2_tz	PEC2pt3_tx	PEC2pt3_ty	PEC2pt3_tz	PEC3pt2_tx	PEC3pt2_ty	PEC3pt2_tz	PEC3pt3_tx	PEC3pt3_ty	PEC3pt3_tz	DELT2pt2a_tx	DELT2pt2a_ty	DELT2pt2a_tz	DELT2pt2_tx	DELT2pt2_ty	DELT2pt2_tz	LAT1pt2_tx	LAT1pt2_ty	LAT1pt2_tz	LAT1pt3_tx	LAT1pt3_ty	LAT1pt3_tz	LAT2pt2_tx	LAT2pt2_ty	LAT2pt2_tz	LAT2pt3_tx	LAT2pt3_ty	LAT2pt3_tz	LAT3pt2_tx	LAT3pt2_ty	LAT3pt2_tz	LAT3pt3_tx	LAT3pt3_ty	LAT3pt3_tz
      1.30000000	     -0.32297301	      0.13679613	     -0.13679613	      0.32297301	     -0.06539547	      0.52850315	      0.23755853	     -0.23755853	     -0.52850315	      0.06539547	     98.45038626	     76.46673179	     -1.71828339	    -19.64718316	     28.47507354	     13.41840194	     -0.01989324	     -0.81595617	     -0.02732175	     -0.40797809	      3.43570422	     -0.54344413	    -33.18483155	     -1.42268512	      8.31149640	      6.46551542	     24.65490786	    -24.58003982	     21.11551845	      9.44167340	     59.30986773	     40.32929508	     15.13016500	     -1.07007719	     66.29161117	     38.78814982	      4.17373405	    -13.43281401	     -0.89365479	      5.04145082	      0.00084187	     -0.03086368	     -0.00482569	      0.01571651	     -0.01793539	     -0.00981231	      0.00655853	     -0.06554110	     -0.00113092	      0.00521308	     -0.18394771	      0.00006834	     -0.00161020	      0.00040797	      0.00014577	      0.00027728	      0.00011091	      0.00055455	      0.00035491	      0.00106474	      0.00059892	      0.00004245	     -0.00007934	     -0.00009520	      0.00250641	      0.00879368	      0.00611734	     -0.00819894	      0.01979640	     -0.01877685	      0.00250641	      0.00879368	      0.00611734	      0.00055226	      0.01835203	     -0.00964331	      0.00395927	      0.00489005	      0.01599527	      0.00000000	      0.00782021	      0.00000000	     -0.00717938	     -0.03317809	     -0.00644835	      0.01357185	     -0.00042112	     -0.00317667	     -0.00089211	      0.01495351	     -0.00611734	      0.00246393	      0.02158063	     -0.01784225	     -0.00598990	      0.01295687	     -0.00548012	     -0.01248958	      0.02735812	     -0.03062920	     -0.02344982	      0.01448621	     -0.00734931	     -0.01554825	      0.03160628	     -0.03827588
      1.33333333	     -0.32325941	      0.13691743	     -0.13691743	      0.32325941	     -0.06545346	      0.52897180	      0.23776918	     -0.23776918	     -0.52897180	      0.06545346	     98.34430409	     76.53453889	     -1.71643191	    -19.48690151	     28.62757344	     14.45245091	      0.00991555	     -0.73403907	      0.01337659	     -0.36701954	      7.33795288	     -1.38617998	    -33.28763834	     -3.74295670	      6.87751252	      7.69960402	     25.66369986	    -23.43972825	     18.11220411	      9.57656652	     49.34784701	     34.04713518	     11.78800884	     -0.36118331	     56.67975915	     34.63188458	      6.40269593	    -13.71725135	     -0.46095892	      5.05533441	      0.00084691	     -0.03088116	     -0.00482851	      0.01578010	     -0.01797682	     -0.00973971	      0.00648213	     -0.06559050	     -0.00121422	      0.00530886	     -0.18393385	      0.00004070	     -0.00173429	      0.00044172	      0.00015296	      0.00029980	      0.00011992	      0.00059959	      0.00038374	      0.00115122	      0.00064756	      0.00003594	     -0.00015354	     -0.00018424	      0.00250863	      0.00880148	      0.00612277	     -0.00820621	      0.01981396	     -0.01879350	      0.00250863	      0.00880148	      0.00612277	      0.00055275	      0.01836830	     -0.00965186	      0.00396183	      0.00489439	      0.01600150	      0.00000000	      0.00783418	      0.00000000	     -0.00718575	     -0.03320751	     -0.00645995	      0.01347841	     -0.00041623	     -0.00312215	     -0.00089290	      0.01496677	     -0.00612277	      0.00246612	      0.02159977	     -0.01785807	     -0.00599521	      0.01296836	     -0.00548498	     -0.01250065	      0.02738238	     -0.03065636	     -0.02347061	      0.01449906	     -0.00735583	     -0.01556204	      0.03163430	     -0.03830982
      1.36666667	     -0.32280926	      0.13672677	     -0.13672677	      0.32280926	     -0.06536231	      0.52823519	      0.23743808	     -0.23743808	     -0.52823519	      0.06536231	     98.44365766	     76.42796231	     -1.71816595	    -20.35633793	     28.76058329	     17.19663382	      0.03842073	     -0.63779571	      0.05093449	     -0.31889786	     11.74565766	     -3.12598001	    -33.05535882	     -7.01936531	      4.81071438	      8.69367977	     27.08037525	    -23.02182050	     14.66991390	      9.57616498	     40.68793226	     30.97199718	      8.88526282	      0.18401672	     46.69798585	     32.06297990	      8.55221846	    -13.87665216	     -0.04756252	      5.04325385	      0.00085131	     -0.03089640	     -0.00483096	      0.01593700	     -0.01801295	     -0.00953979	      0.00627936	     -0.06572162	     -0.00143528	      0.00556467	     -0.18389560	     -0.00002874	     -0.00206359	      0.00053287	      0.00016921	      0.00031190	      0.00012476	      0.00062380	      0.00039923	      0.00119770	      0.00067371	      0.00003014	     -0.00021703	     -0.00026043	      0.00250514	      0.00878922	      0.00611424	     -0.00819478	      0.01978637	     -0.01876733	      0.00250514	      0.00878922	      0.00611424	      0.00055198	      0.01834273	     -0.00963842	      0.00395781	      0.00488758	      0.01599172	      0.00000000	      0.00781222	      0.00000000	     -0.00717574	     -0.03316127	     -0.00644172	      0.01398112	     -0.00044290	     -0.00342278	     -0.00089166	      0.01494593	     -0.00611424	      0.00246268	      0.02156969	     -0.01783321	     -0.00598686	      0.01295030	     -0.00547734	     -0.01248324	      0.02734425	     -0.03061367	     -0.02343793	      0.01447887	     -0.00734558	     -0.01554037	      0.03159025	     -0.03825647
      1.40000000	     -0.32290873	      0.13676890	     -0.13676890	      0.32290873	     -0.06538245	      0.52839796	      0.23751125	     -0.23751125	     -0.52839796	      0.06538245	     98.64260267	     76.45151218	     -1.72163820	    -20.41503474	     28.34580705	     16.73074494	      0.03828071	     -0.63263530	      0.05075346	     -0.31631765	     14.49746703	     -2.43002326	    -32.41603814	     -6.73656687	      5.61176522	      9.57275999	     27.15659071	    -22.89250534	     10.83111248	      8.93577944	     38.05708155	     29.96986956	      4.68262659	     -0.61438861	     43.58400437	     31.07586122	      9.81864402	    -14.05228640	      0.10991444	      5.06691963	      0.00083759	     -0.03084886	     -0.00482331	      0.01591158	     -0.01790028	     -0.00957447	      0.00631379	     -0.06569936	     -0.00139775	      0.00552108	     -0.18390225	     -0.00001735	     -0.00200768	      0.00051723	      0.00016674	      0.00031211	      0.00012484	      0.00062421	      0.00039949	      0.00119848	      0.00067415	      0.00002486	     -0.00024567	     -0.00029481	      0.00250591	      0.00879193	      0.00611613	     -0.00819731	      0.01979246	     -0.01877311	      0.00250591	      0.00879193	      0.00611613	      0.00055215	      0.01834838	     -0.00964139	      0.00395870	      0.00488908	      0.01599388	      0.00000000	      0.00781707	      0.00000000	     -0.00717795	     -0.03317149	     -0.00644575	      0.01401462	     -0.00044472	     -0.00344359	     -0.00089194	      0.01495053	     -0.00611613	      0.00246344	      0.02157633	     -0.01783870	     -0.00598871	      0.01295429	     -0.00547903	     -0.01248709	      0.02735268	     -0.03062310	     -0.02344515	      0.01448333	     -0.00734785	     -0.01554515	      0.03159999	     -0.03826826
